<svg enable-background="new 0 0 2000 2000" viewBox="0 0 2000 2000" xmlns="http://www.w3.org/2000/svg"><path d="m941.1 1121.2c-83.9-121.6-72.4-170.8-72.4-170.8s-55 34.7-20.3 104.2l34.7 66.6s0 26-17.4 8.7c-17.4-17.4-243.2-188.2-237.4-272.1 0 0-14.9 28.3-26.4 70.5 9.5 37.6 46.2 102.7 172.6 187.4 0 0-127.7-50.8-179.3-159.2-3.4 17.3-5.9 36-6.5 55.4 20.5 34.7 61.8 80.7 143.9 135.7 0 0-88.6-35.3-143.6-109.8 1 18.4 3.8 37.1 9.3 55.7 23.2 32.1 63.4 72 132.3 118.1 0 0-63-25.1-115.7-77.6 4 7.4 8.4 14.8 13.5 22 48.2 68.4 113.5 122.4 162.2 190.3 23.4 32.6 41.8 68.6 50.9 107.9 12.9 55.9 20.5 118-5.9 171.4-20.4 41.2-55.6 80.2-90.1 110-32.7 28.2-71.6 47.9-112.3 61.8-33.5 11.5-68.1 18.4-102.3 27.4-12.2 3.2-25.1 6.2-36.4 12-3 1.5-18.2 14.9-19.5 14.9 0 0 162.1 5.8 243.2-37.6s208.5-34.7 275-23.2l-5.8-388.8c-0-.1 37.6-159.3-46.3-280.9z" fill="#99675f"/><path d="m1227.5 1701c-28.1-34.3-56.1-72.9-69-116-6.8-22.7-7.4-46.4-5-69.8 6.4-60.9 26.5-118.7 62.3-168.8 48.7-68 114.1-122 162.3-190.5 5.1-7.2 9.5-14.6 13.5-22-52.7 52.5-115.7 77.6-115.7 77.6 68.9-46.1 109-86 132.3-118.1 5.5-18.5 8.3-37.3 9.3-55.7-54.9 74.6-143.6 109.8-143.6 109.8 82.1-55 123.4-101 143.9-135.7-.7-19.4-3.1-38.1-6.6-55.4-51.5 108.3-179.3 159.2-179.3 159.2 126.4-84.7 163.1-149.7 172.6-187.4-11.6-42.2-26.5-70.5-26.5-70.5 5.8 84-220 254.8-237.4 272.1-17.4 17.4-17.4-8.7-17.4-8.7l34.7-66.6c34.8-69.5-20.3-104.2-20.3-104.2s11.6 49.2-72.4 170.8-46.3 280.8-46.3 280.8l-5.8 388.8c66.6-11.6 194-20.3 275 23.2 81.1 43.4 243.2 37.6 243.2 37.6-28.8-43.4-199.6-23.1-303.8-150.5z" fill="#99675f"/><path d="m385.6 221.1-8.2 76-9.1 76-59.8 464.3c122.3-19.5 223.7-18.6 307.5-5.1 16.8 2.7 29.8 5.9 45.2 9.5 269.6 63.9 328.8 263.4 328.8 263.4v-680.2c-209-311.8-604.4-203.9-604.4-203.9z" fill="#97a822"/><path d="m212.9 972.8 78-592.8h-90l-92 780.7s299.9-319.3 555.6-317.1c-15.4-3.7-31.6-5.9-48.4-8.7-204.2-4.6-403.2 137.9-403.2 137.9z" fill="#5b784d"/><path d="m1792 380h-90l78 592.8s-199-143.4-403.2-138.7c-16.8 2.7-33 5-48.4 8.7 255.7-2.2 555.6 318.4 555.6 318.4z" fill="#5b784d"/><path d="m616.1 832.3c-83.8-13.5-185-14.5-307.3 5.1l60.2-464.9 9.9-76.5h-78.1l-9.9 76.5-78 596.5s199-141.3 403.2-136.7z" fill="#718f40"/><path d="m1684.1 837.4c-122.3-19.5-223.5-18.6-307.3-5.1 204.2-4.6 403.2 137 403.2 137l-78-596.8-9.9-76.5h-78.1l9.9 76.5z" fill="#718f40"/><path d="m1684.1 837.4-60.3-464.3-9.9-76-13.1-76s-387.9-107.9-610.9 203.9v680.2s65.5-199.6 335.2-263.4c15.4-3.7 33.2-6.8 50-9.5 83.8-13.5 186.7-14.5 309 5.1z" fill="#b9c26a"/></svg>